<mxfile host="app.diagrams.net" agent="Mozilla/5.0 (X11; Linux x86_64) AppleWebKit/537.36 (KHTML, like Gecko) Chrome/130.0.0.0 Safari/537.36" version="25.0.1">
  <diagram name="Page-1" id="gWgLEaExIyplhQgGiRtV">
    <mxGraphModel dx="1372" dy="759" grid="1" gridSize="10" guides="1" tooltips="1" connect="1" arrows="1" fold="1" page="1" pageScale="1" pageWidth="850" pageHeight="1100" math="0" shadow="0">
      <root>
        <mxCell id="0" />
        <mxCell id="1" parent="0" />
        <mxCell id="ODPvFqm4sb_6gfT_E2EF-5" style="edgeStyle=orthogonalEdgeStyle;rounded=0;orthogonalLoop=1;jettySize=auto;html=1;exitX=0.5;exitY=1;exitDx=0;exitDy=0;" edge="1" parent="1" source="ODPvFqm4sb_6gfT_E2EF-1" target="ODPvFqm4sb_6gfT_E2EF-3">
          <mxGeometry relative="1" as="geometry" />
        </mxCell>
        <mxCell id="ODPvFqm4sb_6gfT_E2EF-6" style="edgeStyle=orthogonalEdgeStyle;rounded=0;orthogonalLoop=1;jettySize=auto;html=1;exitX=1;exitY=1;exitDx=0;exitDy=0;" edge="1" parent="1" source="ODPvFqm4sb_6gfT_E2EF-1" target="ODPvFqm4sb_6gfT_E2EF-4">
          <mxGeometry relative="1" as="geometry" />
        </mxCell>
        <mxCell id="ODPvFqm4sb_6gfT_E2EF-1" value="&lt;br&gt;&lt;div&gt;User&lt;/div&gt;" style="whiteSpace=wrap;html=1;align=center;" vertex="1" parent="1">
          <mxGeometry x="375" y="390" width="105" height="50" as="geometry" />
        </mxCell>
        <mxCell id="ODPvFqm4sb_6gfT_E2EF-2" value="Task" style="whiteSpace=wrap;html=1;align=center;" vertex="1" parent="1">
          <mxGeometry x="375" y="180" width="100" height="40" as="geometry" />
        </mxCell>
        <mxCell id="ODPvFqm4sb_6gfT_E2EF-3" value="username" style="ellipse;whiteSpace=wrap;html=1;align=center;" vertex="1" parent="1">
          <mxGeometry x="320" y="560" width="100" height="40" as="geometry" />
        </mxCell>
        <mxCell id="ODPvFqm4sb_6gfT_E2EF-4" value="password&lt;div&gt;&lt;br&gt;&lt;/div&gt;" style="ellipse;whiteSpace=wrap;html=1;align=center;" vertex="1" parent="1">
          <mxGeometry x="470" y="530" width="100" height="40" as="geometry" />
        </mxCell>
        <mxCell id="ODPvFqm4sb_6gfT_E2EF-7" value="Adds&lt;div&gt;&lt;br&gt;&lt;/div&gt;" style="shape=rhombus;double=1;perimeter=rhombusPerimeter;whiteSpace=wrap;html=1;align=center;" vertex="1" parent="1">
          <mxGeometry x="375" y="270" width="120" height="60" as="geometry" />
        </mxCell>
      </root>
    </mxGraphModel>
  </diagram>
</mxfile>
